<svg width="51" height="50" viewBox="0 0 51 50" fill="none" xmlns="http://www.w3.org/2000/svg">
<rect x="0.333008" width="50" height="50" rx="10" fill="#F8CC48"/>
<path d="M20.3352 31.2216C19.3996 31.2216 18.5966 30.9848 17.9261 30.5114C17.2595 30.0341 16.7462 29.3466 16.3864 28.4489C16.0303 27.5473 15.8523 26.4621 15.8523 25.1932C15.8561 23.9242 16.036 22.8447 16.392 21.9545C16.7519 21.0606 17.2652 20.3788 17.9318 19.9091C18.6023 19.4394 19.4034 19.2045 20.3352 19.2045C21.267 19.2045 22.0682 19.4394 22.7386 19.9091C23.4091 20.3788 23.9223 21.0606 24.2784 21.9545C24.6383 22.8485 24.8182 23.928 24.8182 25.1932C24.8182 26.4659 24.6383 27.553 24.2784 28.4545C23.9223 29.3523 23.4091 30.0379 22.7386 30.5114C22.072 30.9848 21.2708 31.2216 20.3352 31.2216ZM20.3352 29.4432C21.0625 29.4432 21.6364 29.0852 22.0568 28.3693C22.4811 27.6496 22.6932 26.5909 22.6932 25.1932C22.6932 24.2689 22.5966 23.4924 22.4034 22.8636C22.2102 22.2348 21.9375 21.7614 21.5852 21.4432C21.233 21.1212 20.8163 20.9602 20.3352 20.9602C19.6117 20.9602 19.0398 21.3201 18.6193 22.0398C18.1989 22.7557 17.9867 23.8068 17.983 25.1932C17.9792 26.1212 18.072 26.9015 18.2614 27.5341C18.4545 28.1667 18.7273 28.6439 19.0795 28.9659C19.4318 29.2841 19.8504 29.4432 20.3352 29.4432ZM30.7514 31.1591C29.9938 31.1591 29.3158 31.017 28.7173 30.733C28.1188 30.4451 27.6435 30.0511 27.2912 29.5511C26.9427 29.0511 26.7571 28.4792 26.7344 27.8352H28.7798C28.8177 28.3125 29.0241 28.7027 29.3991 29.0057C29.7741 29.3049 30.2249 29.4545 30.7514 29.4545C31.1643 29.4545 31.5317 29.3598 31.8537 29.1705C32.1757 28.9811 32.4295 28.7178 32.6151 28.3807C32.8007 28.0436 32.8916 27.6591 32.8878 27.2273C32.8916 26.7879 32.7988 26.3977 32.6094 26.0568C32.42 25.7159 32.1605 25.4489 31.831 25.2557C31.5014 25.0587 31.1226 24.9602 30.6946 24.9602C30.3461 24.9564 30.0033 25.0208 29.6662 25.1534C29.3291 25.286 29.062 25.4602 28.8651 25.6761L26.9616 25.3636L27.5696 19.3636H34.3196V21.125H29.3139L28.9787 24.2102H29.0469C29.2628 23.9564 29.5677 23.7462 29.9616 23.5795C30.3556 23.4091 30.7874 23.3239 31.2571 23.3239C31.9616 23.3239 32.5904 23.4905 33.1435 23.8239C33.6965 24.1534 34.1321 24.608 34.4503 25.1875C34.7685 25.767 34.9276 26.4299 34.9276 27.1761C34.9276 27.9451 34.7495 28.6307 34.3935 29.233C34.0412 29.8314 33.5507 30.303 32.9219 30.6477C32.2969 30.9886 31.5734 31.1591 30.7514 31.1591Z" fill="#EB4640"/>
</svg>
