<svg width="50" height="50" viewBox="0 0 50 50" fill="none" xmlns="http://www.w3.org/2000/svg">
<rect width="50" height="50" rx="10" fill="#F8CC48"/>
<path d="M19.3352 31.2216C18.3996 31.2216 17.5966 30.9848 16.9261 30.5114C16.2595 30.0341 15.7462 29.3466 15.3864 28.4489C15.0303 27.5473 14.8523 26.4621 14.8523 25.1932C14.8561 23.9242 15.036 22.8447 15.392 21.9545C15.7519 21.0606 16.2652 20.3788 16.9318 19.9091C17.6023 19.4394 18.4034 19.2045 19.3352 19.2045C20.267 19.2045 21.0682 19.4394 21.7386 19.9091C22.4091 20.3788 22.9223 21.0606 23.2784 21.9545C23.6383 22.8485 23.8182 23.928 23.8182 25.1932C23.8182 26.4659 23.6383 27.553 23.2784 28.4545C22.9223 29.3523 22.4091 30.0379 21.7386 30.5114C21.072 30.9848 20.2708 31.2216 19.3352 31.2216ZM19.3352 29.4432C20.0625 29.4432 20.6364 29.0852 21.0568 28.3693C21.4811 27.6496 21.6932 26.5909 21.6932 25.1932C21.6932 24.2689 21.5966 23.4924 21.4034 22.8636C21.2102 22.2348 20.9375 21.7614 20.5852 21.4432C20.233 21.1212 19.8163 20.9602 19.3352 20.9602C18.6117 20.9602 18.0398 21.3201 17.6193 22.0398C17.1989 22.7557 16.9867 23.8068 16.983 25.1932C16.9792 26.1212 17.072 26.9015 17.2614 27.5341C17.4545 28.1667 17.7273 28.6439 18.0795 28.9659C18.4318 29.2841 18.8504 29.4432 19.3352 29.4432ZM29.7457 19.2045C30.3026 19.2083 30.8442 19.3068 31.3707 19.5C31.901 19.6894 32.3783 20 32.8026 20.4318C33.2268 20.8598 33.5639 21.4337 33.8139 22.1534C34.0639 22.8731 34.1889 23.7633 34.1889 24.8239C34.1927 25.8239 34.0866 26.7178 33.8707 27.5057C33.6586 28.2898 33.3537 28.9527 32.956 29.4943C32.5582 30.036 32.0791 30.4489 31.5185 30.733C30.9579 31.017 30.3272 31.1591 29.6264 31.1591C28.8916 31.1591 28.2401 31.0152 27.6719 30.7273C27.1075 30.4394 26.651 30.0455 26.3026 29.5455C25.9541 29.0455 25.7401 28.4735 25.6605 27.8295H27.7344C27.8404 28.2917 28.0563 28.6591 28.3821 28.9318C28.7116 29.2008 29.1264 29.3352 29.6264 29.3352C30.4332 29.3352 31.0545 28.9848 31.4901 28.2841C31.9257 27.5833 32.1435 26.6098 32.1435 25.3636H32.0639C31.8783 25.697 31.6378 25.9848 31.3423 26.2273C31.0469 26.4659 30.7116 26.6496 30.3366 26.7784C29.9654 26.9072 29.5715 26.9716 29.1548 26.9716C28.473 26.9716 27.8594 26.8087 27.3139 26.483C26.7723 26.1572 26.3423 25.7102 26.0241 25.142C25.7098 24.5739 25.5507 23.9242 25.5469 23.1932C25.5469 22.4356 25.7211 21.7557 26.0696 21.1534C26.4219 20.5473 26.9124 20.0701 27.5412 19.7216C28.17 19.3693 28.9048 19.197 29.7457 19.2045ZM29.7514 20.9091C29.3423 20.9091 28.973 21.0095 28.6435 21.2102C28.3177 21.4072 28.0601 21.6761 27.8707 22.017C27.6851 22.3542 27.5923 22.7311 27.5923 23.1477C27.5961 23.5606 27.6889 23.9356 27.8707 24.2727C28.0563 24.6098 28.3082 24.8769 28.6264 25.0739C28.9484 25.2708 29.3158 25.3693 29.7287 25.3693C30.0355 25.3693 30.3215 25.3106 30.5866 25.1932C30.8518 25.0758 31.0829 24.9129 31.2798 24.7045C31.4806 24.4924 31.6359 24.2519 31.7457 23.983C31.8594 23.714 31.9143 23.4299 31.9105 23.1307C31.9105 22.733 31.8158 22.3655 31.6264 22.0284C31.4408 21.6913 31.1851 21.4205 30.8594 21.2159C30.5374 21.0114 30.1681 20.9091 29.7514 20.9091Z" fill="#EB4640"/>
</svg>
