<svg width="51" height="50" viewBox="0 0 51 50" fill="none" xmlns="http://www.w3.org/2000/svg">
<rect x="0.666992" width="50" height="50" rx="10" fill="#F8CC48"/>
<path d="M20.7884 31.2216C19.8527 31.2216 19.0497 30.9848 18.3793 30.5114C17.7126 30.0341 17.1993 29.3466 16.8395 28.4489C16.4834 27.5473 16.3054 26.4621 16.3054 25.1932C16.3092 23.9242 16.4891 22.8447 16.8452 21.9545C17.205 21.0606 17.7183 20.3788 18.3849 19.9091C19.0554 19.4394 19.8565 19.2045 20.7884 19.2045C21.7202 19.2045 22.5213 19.4394 23.1918 19.9091C23.8622 20.3788 24.3755 21.0606 24.7315 21.9545C25.0914 22.8485 25.2713 23.928 25.2713 25.1932C25.2713 26.4659 25.0914 27.553 24.7315 28.4545C24.3755 29.3523 23.8622 30.0379 23.1918 30.5114C22.5251 30.9848 21.724 31.2216 20.7884 31.2216ZM20.7884 29.4432C21.5156 29.4432 22.0895 29.0852 22.5099 28.3693C22.9342 27.6496 23.1463 26.5909 23.1463 25.1932C23.1463 24.2689 23.0497 23.4924 22.8565 22.8636C22.6634 22.2348 22.3906 21.7614 22.0384 21.4432C21.6861 21.1212 21.2694 20.9602 20.7884 20.9602C20.0649 20.9602 19.4929 21.3201 19.0724 22.0398C18.652 22.7557 18.4399 23.8068 18.4361 25.1932C18.4323 26.1212 18.5251 26.9015 18.7145 27.5341C18.9077 28.1667 19.1804 28.6439 19.5327 28.9659C19.8849 29.2841 20.3035 29.4432 20.7884 29.4432ZM31.3352 31.1591C30.517 31.1591 29.7898 31.0189 29.1534 30.7386C28.5208 30.4583 28.0208 30.0682 27.6534 29.5682C27.286 29.0682 27.0909 28.4905 27.0682 27.8352H29.2045C29.2235 28.1496 29.3277 28.4242 29.517 28.6591C29.7064 28.8902 29.9583 29.0701 30.2727 29.1989C30.5871 29.3277 30.9394 29.392 31.3295 29.392C31.7462 29.392 32.1155 29.3201 32.4375 29.1761C32.7595 29.0284 33.0114 28.8239 33.1932 28.5625C33.375 28.3011 33.464 28 33.4602 27.6591C33.464 27.3068 33.3731 26.9962 33.1875 26.7273C33.0019 26.4583 32.733 26.2481 32.3807 26.0966C32.0322 25.9451 31.6117 25.8693 31.1193 25.8693H30.0909V24.2443H31.1193C31.5246 24.2443 31.8788 24.1742 32.1818 24.0341C32.4886 23.8939 32.7292 23.697 32.9034 23.4432C33.0777 23.1856 33.1629 22.8883 33.1591 22.5511C33.1629 22.2216 33.089 21.9356 32.9375 21.6932C32.7898 21.447 32.5795 21.2557 32.3068 21.1193C32.0379 20.983 31.7216 20.9148 31.358 20.9148C31.0019 20.9148 30.6723 20.9792 30.3693 21.108C30.0663 21.2367 29.822 21.4205 29.6364 21.6591C29.4508 21.8939 29.3523 22.1742 29.3409 22.5H27.3125C27.3277 21.8485 27.5152 21.2765 27.875 20.7841C28.2386 20.2879 28.7235 19.9015 29.3295 19.625C29.9356 19.3447 30.6155 19.2045 31.3693 19.2045C32.1458 19.2045 32.8201 19.3504 33.392 19.642C33.9678 19.9299 34.4129 20.3182 34.7273 20.8068C35.0417 21.2955 35.1989 21.8352 35.1989 22.4261C35.2027 23.0814 35.0095 23.6307 34.6193 24.0739C34.233 24.517 33.7254 24.8068 33.0966 24.9432V25.0341C33.9148 25.1477 34.5417 25.4508 34.9773 25.9432C35.4167 26.4318 35.6345 27.0398 35.6307 27.767C35.6307 28.4186 35.4451 29.0019 35.0739 29.517C34.7064 30.0284 34.1989 30.4299 33.5511 30.7216C32.9072 31.0133 32.1686 31.1591 31.3352 31.1591Z" fill="#EB4640"/>
</svg>
