<svg width="51" height="50" viewBox="0 0 51 50" fill="none" xmlns="http://www.w3.org/2000/svg">
<rect x="0.333008" width="50" height="50" rx="10" fill="#F8CC48"/>
<path d="M20.5305 31.2216C19.5949 31.2216 18.7919 30.9848 18.1214 30.5114C17.4548 30.0341 16.9415 29.3466 16.5817 28.4489C16.2256 27.5473 16.0476 26.4621 16.0476 25.1932C16.0514 23.9242 16.2313 22.8447 16.5874 21.9545C16.9472 21.0606 17.4605 20.3788 18.1271 19.9091C18.7976 19.4394 19.5987 19.2045 20.5305 19.2045C21.4624 19.2045 22.2635 19.4394 22.9339 19.9091C23.6044 20.3788 24.1177 21.0606 24.4737 21.9545C24.8336 22.8485 25.0135 23.928 25.0135 25.1932C25.0135 26.4659 24.8336 27.553 24.4737 28.4545C24.1177 29.3523 23.6044 30.0379 22.9339 30.5114C22.2673 30.9848 21.4661 31.2216 20.5305 31.2216ZM20.5305 29.4432C21.2578 29.4432 21.8317 29.0852 22.2521 28.3693C22.6764 27.6496 22.8885 26.5909 22.8885 25.1932C22.8885 24.2689 22.7919 23.4924 22.5987 22.8636C22.4055 22.2348 22.1328 21.7614 21.7805 21.4432C21.4283 21.1212 21.0116 20.9602 20.5305 20.9602C19.8071 20.9602 19.2351 21.3201 18.8146 22.0398C18.3942 22.7557 18.1821 23.8068 18.1783 25.1932C18.1745 26.1212 18.2673 26.9015 18.4567 27.5341C18.6499 28.1667 18.9226 28.6439 19.2749 28.9659C19.6271 29.2841 20.0457 29.4432 20.5305 29.4432ZM26.9013 31V29.4773L30.9411 25.517C31.3274 25.1269 31.6494 24.7803 31.907 24.4773C32.1645 24.1742 32.3577 23.8807 32.4865 23.5966C32.6153 23.3125 32.6797 23.0095 32.6797 22.6875C32.6797 22.3201 32.5964 22.0057 32.4297 21.7443C32.263 21.4792 32.0339 21.2746 31.7422 21.1307C31.4505 20.9867 31.1191 20.9148 30.7479 20.9148C30.3653 20.9148 30.0301 20.9943 29.7422 21.1534C29.4543 21.3087 29.2308 21.5303 29.0717 21.8182C28.9164 22.1061 28.8388 22.4489 28.8388 22.8466H26.8331C26.8331 22.108 27.0017 21.4659 27.3388 20.9205C27.6759 20.375 28.1399 19.9527 28.7308 19.6534C29.3255 19.3542 30.0073 19.2045 30.7763 19.2045C31.5566 19.2045 32.2422 19.3504 32.8331 19.642C33.424 19.9337 33.8823 20.3333 34.2081 20.8409C34.5376 21.3485 34.7024 21.928 34.7024 22.5795C34.7024 23.0152 34.6191 23.4432 34.4524 23.8636C34.2857 24.2841 33.9922 24.75 33.5717 25.2614C33.1551 25.7727 32.5698 26.392 31.8161 27.1193L29.8104 29.1591V29.2386H34.8786V31H26.9013Z" fill="#EB4640"/>
</svg>
