<svg width="50" height="50" viewBox="0 0 50 50" fill="none" xmlns="http://www.w3.org/2000/svg">
<rect width="50" height="50" rx="10" fill="#F8CC48"/>
<path d="M20.3352 31.2216C19.3996 31.2216 18.5966 30.9848 17.9261 30.5114C17.2595 30.0341 16.7462 29.3466 16.3864 28.4489C16.0303 27.5473 15.8523 26.4621 15.8523 25.1932C15.8561 23.9242 16.036 22.8447 16.392 21.9545C16.7519 21.0606 17.2652 20.3788 17.9318 19.9091C18.6023 19.4394 19.4034 19.2045 20.3352 19.2045C21.267 19.2045 22.0682 19.4394 22.7386 19.9091C23.4091 20.3788 23.9223 21.0606 24.2784 21.9545C24.6383 22.8485 24.8182 23.928 24.8182 25.1932C24.8182 26.4659 24.6383 27.553 24.2784 28.4545C23.9223 29.3523 23.4091 30.0379 22.7386 30.5114C22.072 30.9848 21.2708 31.2216 20.3352 31.2216ZM20.3352 29.4432C21.0625 29.4432 21.6364 29.0852 22.0568 28.3693C22.4811 27.6496 22.6932 26.5909 22.6932 25.1932C22.6932 24.2689 22.5966 23.4924 22.4034 22.8636C22.2102 22.2348 21.9375 21.7614 21.5852 21.4432C21.233 21.1212 20.8163 20.9602 20.3352 20.9602C19.6117 20.9602 19.0398 21.3201 18.6193 22.0398C18.1989 22.7557 17.9867 23.8068 17.983 25.1932C17.9792 26.1212 18.072 26.9015 18.2614 27.5341C18.4545 28.1667 18.7273 28.6439 19.0795 28.9659C19.4318 29.2841 19.8504 29.4432 20.3352 29.4432ZM26.8196 31L31.7685 21.2045V21.125H26.0241V19.3636H33.9503V21.1648L29.0071 31H26.8196Z" fill="#EB4640"/>
</svg>
