<svg width="50" height="50" viewBox="0 0 50 50" fill="none" xmlns="http://www.w3.org/2000/svg">
<rect width="50" height="50" rx="10" fill="#F8CC48"/>
<path d="M21.6555 31.2216C20.7199 31.2216 19.9169 30.9848 19.2464 30.5114C18.5798 30.0341 18.0665 29.3466 17.7067 28.4489C17.3506 27.5473 17.1726 26.4621 17.1726 25.1932C17.1764 23.9242 17.3563 22.8447 17.7124 21.9545C18.0722 21.0606 18.5855 20.3788 19.2521 19.9091C19.9226 19.4394 20.7237 19.2045 21.6555 19.2045C22.5874 19.2045 23.3885 19.4394 24.0589 19.9091C24.7294 20.3788 25.2427 21.0606 25.5987 21.9545C25.9586 22.8485 26.1385 23.928 26.1385 25.1932C26.1385 26.4659 25.9586 27.553 25.5987 28.4545C25.2427 29.3523 24.7294 30.0379 24.0589 30.5114C23.3923 30.9848 22.5911 31.2216 21.6555 31.2216ZM21.6555 29.4432C22.3828 29.4432 22.9567 29.0852 23.3771 28.3693C23.8014 27.6496 24.0135 26.5909 24.0135 25.1932C24.0135 24.2689 23.9169 23.4924 23.7237 22.8636C23.5305 22.2348 23.2578 21.7614 22.9055 21.4432C22.5533 21.1212 22.1366 20.9602 21.6555 20.9602C20.9321 20.9602 20.3601 21.3201 19.9396 22.0398C19.5192 22.7557 19.3071 23.8068 19.3033 25.1932C19.2995 26.1212 19.3923 26.9015 19.5817 27.5341C19.7749 28.1667 20.0476 28.6439 20.3999 28.9659C20.7521 29.2841 21.1707 29.4432 21.6555 29.4432ZM32.7592 19.3636V31H30.6513V21.4148H30.5831L27.8615 23.1534V21.2216L30.7536 19.3636H32.7592Z" fill="#EB4640"/>
</svg>
