<svg width="50" height="50" viewBox="0 0 50 50" fill="none" xmlns="http://www.w3.org/2000/svg">
<rect width="50" height="50" rx="10" fill="#F8CC48"/>
<path d="M19.3352 31.2216C18.3996 31.2216 17.5966 30.9848 16.9261 30.5114C16.2595 30.0341 15.7462 29.3466 15.3864 28.4489C15.0303 27.5473 14.8523 26.4621 14.8523 25.1932C14.8561 23.9242 15.036 22.8447 15.392 21.9545C15.7519 21.0606 16.2652 20.3788 16.9318 19.9091C17.6023 19.4394 18.4034 19.2045 19.3352 19.2045C20.267 19.2045 21.0682 19.4394 21.7386 19.9091C22.4091 20.3788 22.9223 21.0606 23.2784 21.9545C23.6383 22.8485 23.8182 23.928 23.8182 25.1932C23.8182 26.4659 23.6383 27.553 23.2784 28.4545C22.9223 29.3523 22.4091 30.0379 21.7386 30.5114C21.072 30.9848 20.2708 31.2216 19.3352 31.2216ZM19.3352 29.4432C20.0625 29.4432 20.6364 29.0852 21.0568 28.3693C21.4811 27.6496 21.6932 26.5909 21.6932 25.1932C21.6932 24.2689 21.5966 23.4924 21.4034 22.8636C21.2102 22.2348 20.9375 21.7614 20.5852 21.4432C20.233 21.1212 19.8163 20.9602 19.3352 20.9602C18.6117 20.9602 18.0398 21.3201 17.6193 22.0398C17.1989 22.7557 16.9867 23.8068 16.983 25.1932C16.9792 26.1212 17.072 26.9015 17.2614 27.5341C17.4545 28.1667 17.7273 28.6439 18.0795 28.9659C18.4318 29.2841 18.8504 29.4432 19.3352 29.4432ZM29.9673 31.1591C29.4105 31.1553 28.867 31.0587 28.3366 30.8693C27.8063 30.6761 27.3291 30.3636 26.9048 29.9318C26.4806 29.4962 26.1435 28.9186 25.8935 28.1989C25.6435 27.4754 25.5204 26.5795 25.5241 25.5114C25.5241 24.5152 25.6302 23.6269 25.8423 22.8466C26.0545 22.0663 26.3594 21.4072 26.7571 20.8693C27.1548 20.3277 27.634 19.9148 28.1946 19.6307C28.759 19.3466 29.3897 19.2045 30.0866 19.2045C30.8177 19.2045 31.4654 19.3485 32.0298 19.6364C32.598 19.9242 33.0563 20.3182 33.4048 20.8182C33.7533 21.3144 33.9692 21.875 34.0526 22.5H31.9787C31.8726 22.053 31.6548 21.697 31.3253 21.4318C30.9995 21.1629 30.5866 21.0284 30.0866 21.0284C29.2798 21.0284 28.6586 21.3788 28.223 22.0795C27.7912 22.7803 27.5734 23.7424 27.5696 24.9659H27.6491C27.8348 24.6326 28.0753 24.3466 28.3707 24.108C28.6662 23.8693 28.9995 23.6856 29.3707 23.5568C29.7457 23.4242 30.1416 23.358 30.5582 23.358C31.2401 23.358 31.8518 23.5208 32.3935 23.8466C32.9389 24.1723 33.3707 24.6212 33.6889 25.1932C34.0071 25.7614 34.1643 26.4129 34.1605 27.1477C34.1643 27.9129 33.9901 28.6004 33.6378 29.2102C33.2855 29.8163 32.795 30.2936 32.1662 30.642C31.5374 30.9905 30.8045 31.1629 29.9673 31.1591ZM29.956 29.4545C30.3688 29.4545 30.7382 29.3542 31.0639 29.1534C31.3897 28.9527 31.6473 28.6818 31.8366 28.3409C32.026 28 32.1188 27.6174 32.1151 27.1932C32.1188 26.7765 32.0279 26.3996 31.8423 26.0625C31.6605 25.7254 31.4086 25.4583 31.0866 25.2614C30.7647 25.0644 30.3973 24.9659 29.9844 24.9659C29.6776 24.9659 29.3916 25.0246 29.1264 25.142C28.8613 25.2595 28.6302 25.4223 28.4332 25.6307C28.2363 25.8352 28.081 26.0739 27.9673 26.3466C27.8575 26.6155 27.8007 26.9034 27.7969 27.2102C27.8007 27.6155 27.8954 27.9886 28.081 28.3295C28.2666 28.6705 28.5223 28.9432 28.848 29.1477C29.1738 29.3523 29.5431 29.4545 29.956 29.4545Z" fill="#EB4640"/>
</svg>
