<svg width="50" height="50" viewBox="0 0 50 50" fill="none" xmlns="http://www.w3.org/2000/svg">
<rect width="50" height="50" rx="10" fill="#F8CC48"/>
<path d="M19.3352 31.2216C18.3996 31.2216 17.5966 30.9848 16.9261 30.5114C16.2595 30.0341 15.7462 29.3466 15.3864 28.4489C15.0303 27.5473 14.8523 26.4621 14.8523 25.1932C14.8561 23.9242 15.036 22.8447 15.392 21.9545C15.7519 21.0606 16.2652 20.3788 16.9318 19.9091C17.6023 19.4394 18.4034 19.2045 19.3352 19.2045C20.267 19.2045 21.0682 19.4394 21.7386 19.9091C22.4091 20.3788 22.9223 21.0606 23.2784 21.9545C23.6383 22.8485 23.8182 23.928 23.8182 25.1932C23.8182 26.4659 23.6383 27.553 23.2784 28.4545C22.9223 29.3523 22.4091 30.0379 21.7386 30.5114C21.072 30.9848 20.2708 31.2216 19.3352 31.2216ZM19.3352 29.4432C20.0625 29.4432 20.6364 29.0852 21.0568 28.3693C21.4811 27.6496 21.6932 26.5909 21.6932 25.1932C21.6932 24.2689 21.5966 23.4924 21.4034 22.8636C21.2102 22.2348 20.9375 21.7614 20.5852 21.4432C20.233 21.1212 19.8163 20.9602 19.3352 20.9602C18.6117 20.9602 18.0398 21.3201 17.6193 22.0398C17.1989 22.7557 16.9867 23.8068 16.983 25.1932C16.9792 26.1212 17.072 26.9015 17.2614 27.5341C17.4545 28.1667 17.7273 28.6439 18.0795 28.9659C18.4318 29.2841 18.8504 29.4432 19.3352 29.4432ZM25.4957 28.8409V27.1648L30.4332 19.3636H31.831V21.75H30.9787L27.6548 27.017V27.108H34.5469V28.8409H25.4957ZM31.0469 31V28.3295L31.0696 27.5795V19.3636H33.0582V31H31.0469Z" fill="#EB4640"/>
</svg>
