<svg width="50" height="50" viewBox="0 0 50 50" fill="none" xmlns="http://www.w3.org/2000/svg">
<rect width="50" height="50" rx="10" fill="#F8CC48"/>
<path d="M22.0874 19.3636V31H19.9794V21.4148H19.9112L17.1896 23.1534V21.2216L20.0817 19.3636H22.0874ZM29.343 31.2216C28.4074 31.2216 27.6044 30.9848 26.9339 30.5114C26.2673 30.0341 25.754 29.3466 25.3942 28.4489C25.0381 27.5473 24.8601 26.4621 24.8601 25.1932C24.8639 23.9242 25.0438 22.8447 25.3999 21.9545C25.7597 21.0606 26.273 20.3788 26.9396 19.9091C27.6101 19.4394 28.4112 19.2045 29.343 19.2045C30.2749 19.2045 31.076 19.4394 31.7464 19.9091C32.4169 20.3788 32.9302 21.0606 33.2862 21.9545C33.6461 22.8485 33.826 23.928 33.826 25.1932C33.826 26.4659 33.6461 27.553 33.2862 28.4545C32.9302 29.3523 32.4169 30.0379 31.7464 30.5114C31.0798 30.9848 30.2786 31.2216 29.343 31.2216ZM29.343 29.4432C30.0703 29.4432 30.6442 29.0852 31.0646 28.3693C31.4889 27.6496 31.701 26.5909 31.701 25.1932C31.701 24.2689 31.6044 23.4924 31.4112 22.8636C31.218 22.2348 30.9453 21.7614 30.593 21.4432C30.2408 21.1212 29.8241 20.9602 29.343 20.9602C28.6196 20.9602 28.0476 21.3201 27.6271 22.0398C27.2067 22.7557 26.9946 23.8068 26.9908 25.1932C26.987 26.1212 27.0798 26.9015 27.2692 27.5341C27.4624 28.1667 27.7351 28.6439 28.0874 28.9659C28.4396 29.2841 28.8582 29.4432 29.343 29.4432Z" fill="#EB4640"/>
</svg>
