<svg width="51" height="50" viewBox="0 0 51 50" fill="none" xmlns="http://www.w3.org/2000/svg">
<rect x="0.333008" width="50" height="50" rx="10" fill="#F8CC48"/>
<path d="M20.3352 31.2216C19.3996 31.2216 18.5966 30.9848 17.9261 30.5114C17.2595 30.0341 16.7462 29.3466 16.3864 28.4489C16.0303 27.5473 15.8523 26.4621 15.8523 25.1932C15.8561 23.9242 16.036 22.8447 16.392 21.9545C16.7519 21.0606 17.2652 20.3788 17.9318 19.9091C18.6023 19.4394 19.4034 19.2045 20.3352 19.2045C21.267 19.2045 22.0682 19.4394 22.7386 19.9091C23.4091 20.3788 23.9223 21.0606 24.2784 21.9545C24.6383 22.8485 24.8182 23.928 24.8182 25.1932C24.8182 26.4659 24.6383 27.553 24.2784 28.4545C23.9223 29.3523 23.4091 30.0379 22.7386 30.5114C22.072 30.9848 21.2708 31.2216 20.3352 31.2216ZM20.3352 29.4432C21.0625 29.4432 21.6364 29.0852 22.0568 28.3693C22.4811 27.6496 22.6932 26.5909 22.6932 25.1932C22.6932 24.2689 22.5966 23.4924 22.4034 22.8636C22.2102 22.2348 21.9375 21.7614 21.5852 21.4432C21.233 21.1212 20.8163 20.9602 20.3352 20.9602C19.6117 20.9602 19.0398 21.3201 18.6193 22.0398C18.1989 22.7557 17.9867 23.8068 17.983 25.1932C17.9792 26.1212 18.072 26.9015 18.2614 27.5341C18.4545 28.1667 18.7273 28.6439 19.0795 28.9659C19.4318 29.2841 19.8504 29.4432 20.3352 29.4432ZM30.8423 31.1591C29.9976 31.1591 29.2476 31.017 28.5923 30.733C27.9408 30.4489 27.4295 30.0606 27.0582 29.5682C26.6908 29.072 26.509 28.5095 26.5128 27.8807C26.509 27.392 26.6151 26.9432 26.831 26.5341C27.0469 26.125 27.3385 25.7841 27.706 25.5114C28.0772 25.2348 28.4901 25.0587 28.9446 24.983V24.9034C28.3461 24.7708 27.8613 24.4659 27.4901 23.9886C27.1226 23.5076 26.9408 22.9527 26.9446 22.3239C26.9408 21.7254 27.1075 21.1913 27.4446 20.7216C27.7817 20.2519 28.2438 19.8826 28.831 19.6136C29.4181 19.3409 30.0885 19.2045 30.8423 19.2045C31.5885 19.2045 32.2533 19.3409 32.8366 19.6136C33.4238 19.8826 33.8859 20.2519 34.223 20.7216C34.5639 21.1913 34.7344 21.7254 34.7344 22.3239C34.7344 22.9527 34.5469 23.5076 34.1719 23.9886C33.8007 24.4659 33.3215 24.7708 32.7344 24.9034V24.983C33.1889 25.0587 33.598 25.2348 33.9616 25.5114C34.3291 25.7841 34.6207 26.125 34.8366 26.5341C35.0563 26.9432 35.1662 27.392 35.1662 27.8807C35.1662 28.5095 34.9806 29.072 34.6094 29.5682C34.2382 30.0606 33.7268 30.4489 33.0753 30.733C32.4276 31.017 31.6832 31.1591 30.8423 31.1591ZM30.8423 29.5341C31.2779 29.5341 31.6567 29.4602 31.9787 29.3125C32.3007 29.161 32.5507 28.9489 32.7287 28.6761C32.9067 28.4034 32.9976 28.089 33.0014 27.733C32.9976 27.3617 32.901 27.0341 32.7116 26.75C32.526 26.4621 32.2704 26.2367 31.9446 26.0739C31.6226 25.911 31.2552 25.8295 30.8423 25.8295C30.4257 25.8295 30.0545 25.911 29.7287 26.0739C29.4029 26.2367 29.1454 26.4621 28.956 26.75C28.7704 27.0341 28.6795 27.3617 28.6832 27.733C28.6795 28.089 28.7666 28.4034 28.9446 28.6761C29.1226 28.9451 29.3726 29.1553 29.6946 29.3068C30.0204 29.4583 30.4029 29.5341 30.8423 29.5341ZM30.8423 24.233C31.1984 24.233 31.5128 24.161 31.7855 24.017C32.062 23.8731 32.2798 23.6723 32.4389 23.4148C32.598 23.1572 32.6795 22.8598 32.6832 22.5227C32.6795 22.1894 32.5999 21.8977 32.4446 21.6477C32.2893 21.3939 32.0734 21.1989 31.7969 21.0625C31.5204 20.9223 31.2022 20.8523 30.8423 20.8523C30.4749 20.8523 30.151 20.9223 29.8707 21.0625C29.5942 21.1989 29.3783 21.3939 29.223 21.6477C29.0715 21.8977 28.9976 22.1894 29.0014 22.5227C28.9976 22.8598 29.0734 23.1572 29.2287 23.4148C29.3878 23.6686 29.6056 23.8693 29.8821 24.017C30.1624 24.161 30.4825 24.233 30.8423 24.233Z" fill="#EB4640"/>
</svg>
