<svg width="24" height="24" viewBox="0 0 24 24" fill="none" xmlns="http://www.w3.org/2000/svg">
<g clip-path="url(#clip0_52_345)">
<path d="M19.9304 8.21007L16.3304 9.89007L14.0004 7.70007V6.30007L16.3304 4.11007L19.9304 5.79007C20.3104 5.97007 20.7504 5.80007 20.9304 5.43007C21.1104 5.05007 20.9404 4.61007 20.5704 4.43007L16.6504 2.60007C16.2704 2.42007 15.8204 2.50007 15.5204 2.80007L13.7804 4.40007C13.6004 4.16007 13.3204 4.00007 13.0004 4.00007C12.4504 4.00007 12.0004 4.45007 12.0004 5.00007V6.00007H8.82044C8.34044 4.65007 6.98044 3.73007 5.40044 4.07007C4.24044 4.32007 3.25044 5.32007 3.04044 6.50007C2.82044 7.82007 3.50044 8.97007 4.52044 9.58007L7.08044 18.0001H4.00044V21.0001H17.0004V18.0001H13.3804L8.41044 8.77007C8.58044 8.53007 8.72044 8.28007 8.82044 8.00007H12.0004V9.00007C12.0004 9.55007 12.4504 10.0001 13.0004 10.0001C13.3204 10.0001 13.6004 9.84007 13.7804 9.60007L15.5204 11.2001C15.8204 11.5001 16.2704 11.5801 16.6504 11.4001L20.5704 9.57007C20.9504 9.39007 21.1104 8.95007 20.9304 8.57007C20.7504 8.20007 20.3104 8.03007 19.9304 8.21007ZM6.00044 8.00007C5.45044 8.00007 5.00044 7.55007 5.00044 7.00007C5.00044 6.45007 5.45044 6.00007 6.00044 6.00007C6.55044 6.00007 7.00044 6.45007 7.00044 7.00007C7.00044 7.55007 6.55044 8.00007 6.00044 8.00007Z" fill="#7B7B7B"/>
</g>
<defs>
<clipPath id="clip0_52_345">
<rect width="24" height="24" fill="white"/>
</clipPath>
</defs>
</svg>
