<svg width="71" height="70" viewBox="0 0 71 70" fill="none" xmlns="http://www.w3.org/2000/svg">
<rect x="0.5" width="70" height="70" rx="10" fill="#F8CC48"/>
<path d="M24.2358 26.2192L29.6262 30.9622L34.4287 25.049C34.5632 24.8837 34.7333 24.7509 34.9262 24.6604C35.1191 24.5699 35.33 24.5241 35.5431 24.5265C35.7562 24.5288 35.966 24.5791 36.1569 24.6738C36.3479 24.7684 36.515 24.9049 36.6458 25.0731L41.2287 30.9608L46.7934 26.1498C47.0119 25.9612 47.2828 25.8439 47.5699 25.8136C47.8569 25.7832 48.1463 25.8413 48.3995 25.9799C48.6526 26.1186 48.8573 26.3313 48.9863 26.5895C49.1152 26.8477 49.1622 27.1391 49.121 27.4248L46.996 42.083H24.0559L21.8983 27.4914C21.8555 27.2041 21.9019 26.9106 22.0314 26.6507C22.1609 26.3907 22.3672 26.1768 22.6223 26.038C22.8774 25.8992 23.169 25.8421 23.4576 25.8745C23.7462 25.9069 24.0179 26.0272 24.2358 26.2192ZM24.1664 43.4997H46.8331V44.9164C46.8331 45.2921 46.6838 45.6524 46.4181 45.9181C46.1525 46.1838 45.7921 46.333 45.4164 46.333H25.5831C25.2074 46.333 24.847 46.1838 24.5813 45.9181C24.3157 45.6524 24.1664 45.2921 24.1664 44.9164V43.4997Z" fill="#EB4640"/>
</svg>
