<svg width="78" height="78" viewBox="0 0 78 78" fill="none" xmlns="http://www.w3.org/2000/svg">
<g filter="url(#filter0_d_103_298)">
<rect x="4" width="70" height="70" rx="10" fill="#F8CC48"/>
<path d="M25.4706 32.9812L31.4206 27.0312C31.7512 26.7007 32.1408 26.4646 32.5894 26.3229C33.038 26.1812 33.4984 26.1576 33.9706 26.2521L35.8123 26.6416C34.5373 28.1527 33.5338 29.5222 32.8019 30.75C32.0699 31.9777 31.3616 33.4652 30.6769 35.2125L25.4706 32.9812ZM32.7311 36.2041C33.2741 34.5041 34.0122 32.8986 34.9453 31.3875C35.8784 29.8764 37.0056 28.4597 38.3269 27.1375C40.4047 25.0597 42.7776 23.507 45.4456 22.4795C48.1137 21.4519 50.6047 21.1393 52.9186 21.5416C53.3199 23.8555 53.013 26.3465 51.9977 29.0146C50.9824 31.6826 49.4359 34.0555 47.3581 36.1333C46.0595 37.4319 44.6429 38.5596 43.1081 39.5163C41.5734 40.473 39.9561 41.2224 38.2561 41.7646L32.7311 36.2041ZM42.5061 31.9541C43.0491 32.4972 43.7164 32.7687 44.5078 32.7687C45.2992 32.7687 45.966 32.4972 46.5081 31.9541C47.0512 31.4111 47.3227 30.7443 47.3227 29.9538C47.3227 29.1633 47.0512 28.4961 46.5081 27.9521C45.9651 27.409 45.2978 27.1375 44.5064 27.1375C43.7149 27.1375 43.0482 27.409 42.5061 27.9521C41.963 28.4951 41.6915 29.1624 41.6915 29.9538C41.6915 30.7452 41.963 31.412 42.5061 31.9541ZM41.5144 48.9896L39.2477 43.7833C40.9949 43.0986 42.4886 42.3902 43.7286 41.6583C44.9687 40.9264 46.3438 39.9229 47.854 38.6479L48.2081 40.4896C48.3026 40.9618 48.279 41.4283 48.1373 41.8892C47.9956 42.3501 47.7595 42.7454 47.429 43.075L41.5144 48.9896ZM27.7373 40.7375C28.5637 39.9111 29.5672 39.4917 30.7477 39.4795C31.9283 39.4672 32.9317 39.8747 33.7581 40.7021C34.5845 41.5284 34.9977 42.5319 34.9977 43.7125C34.9977 44.893 34.5845 45.8965 33.7581 46.7229C33.1679 47.3132 32.1823 47.8208 30.8016 48.2458C29.4208 48.6708 27.5139 49.0486 25.0811 49.3791C25.4116 46.9472 25.7894 45.0465 26.2144 43.6771C26.6394 42.3076 27.147 41.3277 27.7373 40.7375Z" fill="#EB4640"/>
</g>
<defs>
<filter id="filter0_d_103_298" x="0" y="0" width="78" height="78" filterUnits="userSpaceOnUse" color-interpolation-filters="sRGB">
<feFlood flood-opacity="0" result="BackgroundImageFix"/>
<feColorMatrix in="SourceAlpha" type="matrix" values="0 0 0 0 0 0 0 0 0 0 0 0 0 0 0 0 0 0 127 0" result="hardAlpha"/>
<feOffset dy="4"/>
<feGaussianBlur stdDeviation="2"/>
<feComposite in2="hardAlpha" operator="out"/>
<feColorMatrix type="matrix" values="0 0 0 0 0 0 0 0 0 0 0 0 0 0 0 0 0 0 0.25 0"/>
<feBlend mode="normal" in2="BackgroundImageFix" result="effect1_dropShadow_103_298"/>
<feBlend mode="normal" in="SourceGraphic" in2="effect1_dropShadow_103_298" result="shape"/>
</filter>
</defs>
</svg>
