<svg width="71" height="70" viewBox="0 0 71 70" fill="none" xmlns="http://www.w3.org/2000/svg">
<rect x="0.5" width="70" height="70" rx="10" fill="#EB4640"/>
<path d="M24.167 37.8333C24.167 35.3542 24.7573 33.1465 25.9378 31.2104C27.1184 29.2743 28.417 27.6451 29.8337 26.3229C31.2503 25.0007 32.5489 23.9911 33.7295 23.2941L35.5003 22.25V26.925C35.5003 27.7986 35.7955 28.489 36.3857 28.9962C36.976 29.5033 37.6371 29.7574 38.3691 29.7583C38.7705 29.7583 39.1544 29.6757 39.5208 29.5104C39.8873 29.3451 40.2235 29.0736 40.5295 28.6958L41.167 27.9167C42.867 28.9083 44.2364 30.2834 45.2753 32.042C46.3142 33.8006 46.8337 35.731 46.8337 37.8333C46.8337 39.9111 46.326 41.8061 45.3107 43.5184C44.2955 45.2307 42.9614 46.5817 41.3087 47.5715C41.71 47.0048 42.0231 46.3848 42.2479 45.7114C42.4727 45.038 42.5846 44.3245 42.5837 43.5708C42.5837 42.6264 42.4066 41.7348 42.0524 40.8962C41.6982 40.0575 41.1906 39.3081 40.5295 38.6479L35.5003 33.725L30.5066 38.6479C29.8219 39.3326 29.3024 40.0882 28.9482 40.9146C28.5941 41.741 28.417 42.6264 28.417 43.5708C28.417 44.3264 28.5294 45.0409 28.7542 45.7142C28.9789 46.3876 29.2915 47.0072 29.692 47.5729C28.0392 46.5812 26.7052 45.2293 25.6899 43.517C24.6746 41.8047 24.167 39.9102 24.167 37.8333ZM35.5003 37.6917L38.5107 40.6313C38.9121 41.0326 39.2191 41.4812 39.4316 41.9771C39.6441 42.4729 39.7503 43.0042 39.7503 43.5708C39.7503 44.7278 39.3371 45.7133 38.5107 46.5274C37.6844 47.3415 36.6809 47.7491 35.5003 47.75C34.3198 47.75 33.3163 47.3425 32.4899 46.5274C31.6635 45.7124 31.2503 44.7268 31.2503 43.5708C31.2503 43.0278 31.3566 42.5022 31.5691 41.9941C31.7816 41.486 32.0885 41.0317 32.4899 40.6313L35.5003 37.6917Z" fill="#F8CC48"/>
</svg>
