<svg width="56" height="56" viewBox="0 0 56 56" fill="none" xmlns="http://www.w3.org/2000/svg">
<rect width="56" height="56" rx="8.48485" fill="#F8CC48"/>
<path d="M19.4997 30.8335H30.833V28.0002H19.4997V30.8335ZM19.4997 26.5835H36.4997V23.7502H19.4997V26.5835ZM19.4997 22.3335H36.4997V19.5002H19.4997V22.3335ZM13.833 42.1668V16.6668C13.833 15.8877 14.1107 15.2204 14.666 14.6651C15.2213 14.1097 15.8881 13.8326 16.6663 13.8335H39.333C40.1122 13.8335 40.7794 14.1112 41.3348 14.6665C41.8901 15.2218 42.1673 15.8886 42.1663 16.6668V33.6668C42.1663 34.446 41.8887 35.1132 41.3333 35.6686C40.778 36.2239 40.1112 36.5011 39.333 36.5002H19.4997L13.833 42.1668Z" fill="#EB4640"/>
</svg>
