<svg width="56" height="56" viewBox="0 0 56 56" fill="none" xmlns="http://www.w3.org/2000/svg">
<rect width="56" height="56" rx="8.48485" fill="#F8CC48"/>
<path d="M32.5684 32.9697L29.4333 39.5572C29.374 39.6817 29.2853 39.79 29.1748 39.8726C29.0643 39.9551 28.9353 40.0096 28.7991 40.0312C28.6628 40.0528 28.5233 40.041 28.3927 39.9966C28.2621 39.9523 28.1442 39.8768 28.0492 39.7767L23.0314 34.4798C22.8973 34.3385 22.7188 34.2474 22.5256 34.222L15.2907 33.2757C15.154 33.2576 15.0238 33.2067 14.9112 33.1271C14.7986 33.0475 14.707 32.9417 14.6444 32.8189C14.5818 32.6961 14.5501 32.5598 14.5518 32.422C14.5536 32.2841 14.5889 32.1488 14.6546 32.0276L18.1425 25.6186C18.2352 25.4472 18.2662 25.2491 18.2303 25.0576L16.8944 17.885C16.869 17.7492 16.8771 17.6093 16.918 17.4774C16.9588 17.3455 17.0312 17.2255 17.1289 17.1278C17.2266 17.0302 17.3465 16.9578 17.4785 16.9169C17.6104 16.8761 17.7503 16.868 17.8861 16.8933L25.0586 18.2292C25.2502 18.2651 25.4482 18.2341 25.6196 18.1414L32.0286 14.6536C32.1499 14.5878 32.2854 14.5525 32.4234 14.5508C32.5613 14.5491 32.6976 14.5811 32.8205 14.6438C32.9434 14.7066 33.0491 14.7983 33.1286 14.9111C33.2081 15.0238 33.2589 15.1543 33.2767 15.2911L34.2231 22.5246C34.2485 22.7177 34.3395 22.8963 34.4809 23.0303L39.7778 28.0482C39.8779 28.1431 39.9534 28.261 39.9977 28.3916C40.042 28.5223 40.0539 28.6617 40.0323 28.798C40.0107 28.9342 39.9562 29.0632 39.8736 29.1737C39.791 29.2842 39.6828 29.3729 39.5582 29.4322L32.9707 32.5673C32.7944 32.6512 32.6523 32.7933 32.5684 32.9697ZM33.6975 35.6996L35.7006 33.6964L41.7116 39.7059L39.707 41.7105L33.6975 35.6996Z" fill="#EB4640"/>
</svg>
