<svg width="56" height="56" viewBox="0 0 56 56" fill="none" xmlns="http://www.w3.org/2000/svg">
<rect width="56" height="56" rx="8.48485" fill="#F8CC48"/>
<path d="M15.2497 15.25H40.7497C41.1254 15.25 41.4857 15.3993 41.7514 15.6649C42.0171 15.9306 42.1663 16.2909 42.1663 16.6667V39.3333C42.1663 39.7091 42.0171 40.0694 41.7514 40.3351C41.4857 40.6007 41.1254 40.75 40.7497 40.75H15.2497C14.874 40.75 14.5136 40.6007 14.2479 40.3351C13.9823 40.0694 13.833 39.7091 13.833 39.3333V16.6667C13.833 16.2909 13.9823 15.9306 14.2479 15.6649C14.5136 15.3993 14.874 15.25 15.2497 15.25ZM23.0413 30.8333V33.6667H26.583V36.5H29.4163V33.6667H30.833C31.7723 33.6667 32.6732 33.2935 33.3373 32.6293C34.0015 31.9651 34.3747 31.0643 34.3747 30.125C34.3747 29.1857 34.0015 28.2849 33.3373 27.6207C32.6732 26.9565 31.7723 26.5833 30.833 26.5833H25.1663C24.9785 26.5833 24.7983 26.5087 24.6655 26.3759C24.5326 26.243 24.458 26.0629 24.458 25.875C24.458 25.6871 24.5326 25.507 24.6655 25.3741C24.7983 25.2413 24.9785 25.1667 25.1663 25.1667H32.958V22.3333H29.4163V19.5H26.583V22.3333H25.1663C24.227 22.3333 23.3262 22.7065 22.662 23.3707C21.9978 24.0349 21.6247 24.9357 21.6247 25.875C21.6247 26.8143 21.9978 27.7151 22.662 28.3793C23.3262 29.0435 24.227 29.4167 25.1663 29.4167H30.833C31.0209 29.4167 31.201 29.4913 31.3339 29.6241C31.4667 29.757 31.5413 29.9371 31.5413 30.125C31.5413 30.3129 31.4667 30.493 31.3339 30.6259C31.201 30.7587 31.0209 30.8333 30.833 30.8333H23.0413Z" fill="#EB4640"/>
</svg>
