<svg width="66" height="66" viewBox="0 0 66 66" fill="none" xmlns="http://www.w3.org/2000/svg">
<rect width="66" height="66" rx="10" fill="#F8CC48"/>
<path d="M20.2497 20.25H45.7497C46.1254 20.25 46.4857 20.3993 46.7514 20.6649C47.0171 20.9306 47.1663 21.2909 47.1663 21.6667V44.3333C47.1663 44.7091 47.0171 45.0694 46.7514 45.3351C46.4857 45.6007 46.1254 45.75 45.7497 45.75H20.2497C19.874 45.75 19.5136 45.6007 19.2479 45.3351C18.9823 45.0694 18.833 44.7091 18.833 44.3333V21.6667C18.833 21.2909 18.9823 20.9306 19.2479 20.6649C19.5136 20.3993 19.874 20.25 20.2497 20.25ZM28.0413 35.8333V38.6667H31.583V41.5H34.4163V38.6667H35.833C36.7723 38.6667 37.6732 38.2935 38.3373 37.6293C39.0015 36.9651 39.3747 36.0643 39.3747 35.125C39.3747 34.1857 39.0015 33.2849 38.3373 32.6207C37.6732 31.9565 36.7723 31.5833 35.833 31.5833H30.1663C29.9785 31.5833 29.7983 31.5087 29.6655 31.3759C29.5326 31.243 29.458 31.0629 29.458 30.875C29.458 30.6871 29.5326 30.507 29.6655 30.3741C29.7983 30.2413 29.9785 30.1667 30.1663 30.1667H37.958V27.3333H34.4163V24.5H31.583V27.3333H30.1663C29.227 27.3333 28.3262 27.7065 27.662 28.3707C26.9978 29.0349 26.6247 29.9357 26.6247 30.875C26.6247 31.8143 26.9978 32.7151 27.662 33.3793C28.3262 34.0435 29.227 34.4167 30.1663 34.4167H35.833C36.0209 34.4167 36.201 34.4913 36.3339 34.6241C36.4667 34.757 36.5413 34.9371 36.5413 35.125C36.5413 35.3129 36.4667 35.493 36.3339 35.6259C36.201 35.7587 36.0209 35.8333 35.833 35.8333H28.0413Z" fill="#EB4640"/>
</svg>
