<svg width="66" height="67" viewBox="0 0 66 67" fill="none" xmlns="http://www.w3.org/2000/svg">
<rect y="0.5" width="66" height="66" rx="10" fill="#F8CC48"/>
<g clip-path="url(#clip0_103_328)">
<path d="M27.7306 17.2629C27.7954 17.0426 27.9298 16.8492 28.1136 16.7116C28.2975 16.5741 28.521 16.4999 28.7506 16.5H37.2506C37.4189 16.5001 37.5847 16.5402 37.7345 16.617C37.8842 16.6937 38.0136 16.8049 38.1119 16.9415C38.2103 17.078 38.2748 17.2359 38.3002 17.4023C38.3255 17.5686 38.311 17.7386 38.2579 17.8983L34.4754 29.25H42.5631C42.7621 29.2499 42.9571 29.3056 43.126 29.4109C43.2948 29.5161 43.4307 29.6667 43.5182 29.8454C43.6056 30.0241 43.6412 30.2238 43.6207 30.4217C43.6003 30.6196 43.5247 30.8078 43.4025 30.9649L28.5275 50.0899C28.3751 50.2867 28.1584 50.4239 27.9153 50.4773C27.6721 50.5307 27.4179 50.497 27.1971 50.3822C26.9762 50.2673 26.8027 50.0785 26.7068 49.8488C26.6109 49.619 26.5987 49.3629 26.6724 49.1251L30.4995 36.6875H23.4381C23.2729 36.6876 23.11 36.6492 22.9623 36.5753C22.8145 36.5014 22.686 36.3941 22.587 36.2619C22.488 36.1296 22.4212 35.9762 22.3919 35.8136C22.3626 35.651 22.3715 35.4839 22.4181 35.3254L27.7306 17.2629Z" fill="#EB4640"/>
</g>
<defs>
<clipPath id="clip0_103_328">
<rect width="34" height="34" fill="white" transform="translate(16 16.5)"/>
</clipPath>
</defs>
</svg>
