<svg width="66" height="66" viewBox="0 0 66 66" fill="none" xmlns="http://www.w3.org/2000/svg">
<rect width="66" height="66" rx="10" fill="#F8CC48"/>
<path d="M42.0312 33C42.0312 34.7862 41.5016 36.5323 40.5092 38.0175C39.5168 39.5027 38.1064 40.6602 36.4561 41.3438C34.8059 42.0273 32.99 42.2062 31.2381 41.8577C29.4862 41.5092 27.877 40.6491 26.6139 39.3861C25.3509 38.123 24.4908 36.5138 24.1423 34.7619C23.7938 33.01 23.9727 31.1941 24.6562 29.5439C25.3398 27.8936 26.4973 26.4832 27.9825 25.4908C29.4677 24.4984 31.2138 23.9688 33 23.9688C35.3942 23.9723 37.6893 24.9249 39.3822 26.6178C41.0751 28.3107 42.0277 30.6058 42.0312 33ZM33 21.8438C33.2818 21.8438 33.552 21.7318 33.7513 21.5326C33.9506 21.3333 34.0625 21.063 34.0625 20.7812V18.125C34.0625 17.8432 33.9506 17.573 33.7513 17.3737C33.552 17.1744 33.2818 17.0625 33 17.0625C32.7182 17.0625 32.448 17.1744 32.2487 17.3737C32.0494 17.573 31.9375 17.8432 31.9375 18.125V20.7812C31.9375 21.063 32.0494 21.3333 32.2487 21.5326C32.448 21.7318 32.7182 21.8438 33 21.8438ZM23.6102 25.1109C23.811 25.3065 24.0802 25.4159 24.3605 25.4159C24.6409 25.4159 24.9101 25.3065 25.1109 25.1109C25.3096 24.9118 25.4212 24.6419 25.4212 24.3605C25.4212 24.0792 25.3096 23.8093 25.1109 23.6102L23.2383 21.7242C23.143 21.6081 23.0245 21.5133 22.8904 21.4458C22.7562 21.3783 22.6095 21.3396 22.4595 21.3322C22.3095 21.3249 22.1596 21.349 22.0195 21.403C21.8794 21.4571 21.7522 21.5398 21.646 21.646C21.5398 21.7522 21.4571 21.8794 21.403 22.0195C21.349 22.1596 21.3249 22.3095 21.3322 22.4595C21.3396 22.6095 21.3783 22.7562 21.4458 22.8904C21.5133 23.0245 21.6081 23.143 21.7242 23.2383L23.6102 25.1109ZM21.8438 33C21.8438 32.7182 21.7318 32.448 21.5326 32.2487C21.3333 32.0494 21.063 31.9375 20.7812 31.9375H18.125C17.8432 31.9375 17.573 32.0494 17.3737 32.2487C17.1744 32.448 17.0625 32.7182 17.0625 33C17.0625 33.2818 17.1744 33.552 17.3737 33.7513C17.573 33.9506 17.8432 34.0625 18.125 34.0625H20.7812C21.063 34.0625 21.3333 33.9506 21.5326 33.7513C21.7318 33.552 21.8438 33.2818 21.8438 33ZM23.6102 40.8891L21.7242 42.7617C21.5247 42.9632 21.4128 43.2352 21.4128 43.5187C21.4128 43.8023 21.5247 44.0743 21.7242 44.2758C21.9296 44.4685 22.1996 44.5774 22.4812 44.5812C22.7634 44.5801 23.0343 44.4707 23.2383 44.2758L25.1109 42.3898C25.2941 42.1877 25.3925 41.9229 25.3858 41.6503C25.379 41.3776 25.2677 41.118 25.0749 40.9251C24.882 40.7323 24.6224 40.621 24.3497 40.6142C24.0771 40.6075 23.8123 40.7059 23.6102 40.8891ZM33 44.1562C32.7182 44.1562 32.448 44.2682 32.2487 44.4674C32.0494 44.6667 31.9375 44.937 31.9375 45.2188V47.875C31.9375 48.1568 32.0494 48.427 32.2487 48.6263C32.448 48.8256 32.7182 48.9375 33 48.9375C33.2818 48.9375 33.552 48.8256 33.7513 48.6263C33.9506 48.427 34.0625 48.1568 34.0625 47.875V45.2188C34.0625 44.937 33.9506 44.6667 33.7513 44.4674C33.552 44.2682 33.2818 44.1562 33 44.1562ZM42.3898 40.8891C42.1877 40.7059 41.9229 40.6075 41.6503 40.6142C41.3776 40.621 41.118 40.7323 40.9251 40.9251C40.7323 41.118 40.621 41.3776 40.6142 41.6503C40.6075 41.9229 40.7059 42.1877 40.8891 42.3898L42.7617 44.2758C42.9657 44.4707 43.2366 44.5801 43.5187 44.5812C43.8004 44.5774 44.0704 44.4685 44.2758 44.2758C44.4753 44.0743 44.5872 43.8023 44.5872 43.5187C44.5872 43.2352 44.4753 42.9632 44.2758 42.7617L42.3898 40.8891ZM47.875 31.9375H45.2188C44.937 31.9375 44.6667 32.0494 44.4674 32.2487C44.2682 32.448 44.1562 32.7182 44.1562 33C44.1562 33.2818 44.2682 33.552 44.4674 33.7513C44.6667 33.9506 44.937 34.0625 45.2188 34.0625H47.875C48.1568 34.0625 48.427 33.9506 48.6263 33.7513C48.8256 33.552 48.9375 33.2818 48.9375 33C48.9375 32.7182 48.8256 32.448 48.6263 32.2487C48.427 32.0494 48.1568 31.9375 47.875 31.9375ZM41.6461 25.4164C41.7842 25.4176 41.9211 25.3912 42.0488 25.3388C42.1765 25.2863 42.2925 25.2089 42.3898 25.1109L44.2758 23.2383C44.4452 23.0318 44.5318 22.7698 44.5187 22.503C44.5056 22.2363 44.3937 21.9839 44.2049 21.7951C44.0161 21.6063 43.7637 21.4944 43.497 21.4813C43.2302 21.4682 42.9682 21.5548 42.7617 21.7242L40.8891 23.6102C40.6904 23.8093 40.5788 24.0792 40.5788 24.3605C40.5788 24.6419 40.6904 24.9118 40.8891 25.1109C40.988 25.2105 41.1061 25.2889 41.2362 25.3414C41.3664 25.3939 41.5058 25.4194 41.6461 25.4164Z" fill="#EB4640"/>
</svg>
