<svg width="66" height="67" viewBox="0 0 66 67" fill="none" xmlns="http://www.w3.org/2000/svg">
<rect y="0.5" width="66" height="66" rx="10" fill="#F8CC48"/>
<path d="M39.367 21.5859C36.6261 21.5859 34.284 23.5396 32.9972 24.8866C31.7105 23.5396 29.3736 21.5859 26.634 21.5859C21.9119 21.5859 18.6152 24.8774 18.6152 29.589C18.6152 34.7806 22.7096 38.1361 26.6706 41.3818C28.5406 42.9157 30.476 44.5006 31.9602 46.2582C32.21 46.5524 32.5762 46.7224 32.9606 46.7224H33.0365C33.4222 46.7224 33.7871 46.5511 34.0355 46.2582C35.5224 44.5006 37.4565 42.9144 39.3278 41.3818C43.2875 38.1374 47.3845 34.7819 47.3845 29.589C47.3845 24.8774 44.0878 21.5859 39.367 21.5859Z" fill="#EB4640"/>
</svg>
