<svg width="66" height="66" viewBox="0 0 66 66" fill="none" xmlns="http://www.w3.org/2000/svg">
<rect width="66" height="66" rx="10" fill="#F8CC48"/>
<mask id="mask0_99_440" style="mask-type:luminance" maskUnits="userSpaceOnUse" x="15" y="14" width="35" height="34">
<path d="M16.0062 29.2768C15.9863 29.0473 16.0143 28.8161 16.0885 28.5979C16.1626 28.3797 16.2813 28.1793 16.4371 28.0095C16.5928 27.8396 16.7821 27.704 16.993 27.6111C17.2039 27.5183 17.4319 27.4704 17.6623 27.4703H20.8372C21.2782 27.4703 21.7011 27.6455 22.0129 27.9573C22.3248 28.2691 22.4999 28.692 22.4999 29.133V44.9287C22.4999 45.3697 22.3248 45.7926 22.0129 46.1045C21.7011 46.4163 21.2782 46.5915 20.8372 46.5915H19.0365C18.6204 46.5916 18.2193 46.4356 17.9125 46.1544C17.6058 45.8732 17.4156 45.4872 17.3796 45.0726L16.0062 29.2768ZM27.4881 28.6134C27.4881 27.9184 27.9204 27.2966 28.548 27.0006C29.9189 26.3538 32.2542 25.0544 33.3075 23.2977C34.6651 21.0331 34.9212 16.942 34.9628 16.0051C34.9686 15.8737 34.9653 15.7424 34.9827 15.6127C35.208 13.9891 38.3414 15.8854 39.5427 17.8906C40.1953 18.978 40.2785 20.4071 40.2103 21.5236C40.1363 22.7175 39.7863 23.8705 39.4429 25.0162L38.7113 27.4578H47.7374C47.9943 27.4578 48.2477 27.5173 48.4777 27.6317C48.7077 27.7461 48.9081 27.9122 49.0632 28.117C49.2182 28.3218 49.3237 28.5598 49.3713 28.8122C49.419 29.0647 49.4075 29.3247 49.3377 29.572L44.8733 45.381C44.7748 45.7297 44.565 46.0366 44.276 46.2551C43.987 46.4736 43.6345 46.5917 43.2722 46.5915H29.1508C28.7098 46.5915 28.2869 46.4163 27.9751 46.1045C27.6632 45.7926 27.4881 45.3697 27.4881 44.9287V28.6134Z" fill="white" stroke="white" stroke-width="0.99115" stroke-linecap="round" stroke-linejoin="round"/>
</mask>
<g mask="url(#mask0_99_440)">
<path d="M12.5244 10.8442H52.4294V50.7492H12.5244V10.8442Z" fill="#EB4640"/>
</g>
</svg>
