<svg width="66" height="66" viewBox="0 0 66 66" fill="none" xmlns="http://www.w3.org/2000/svg">
<rect width="66" height="66" rx="10" fill="#212121"/>
<mask id="mask0_99_467" style="mask-type:luminance" maskUnits="userSpaceOnUse" x="15" y="16" width="35" height="34">
<path d="M16.0062 34.7232C15.9863 34.9527 16.0143 35.1839 16.0885 35.4021C16.1626 35.6203 16.2813 35.8207 16.4371 35.9905C16.5928 36.1604 16.7821 36.296 16.993 36.3889C17.2039 36.4817 17.4319 36.5296 17.6623 36.5297H20.8372C21.2782 36.5297 21.7011 36.3545 22.0129 36.0427C22.3248 35.7309 22.4999 35.308 22.4999 34.867V19.0713C22.4999 18.6303 22.3248 18.2074 22.0129 17.8955C21.7011 17.5837 21.2782 17.4085 20.8372 17.4085H19.0365C18.6204 17.4084 18.2193 17.5644 17.9125 17.8456C17.6058 18.1268 17.4156 18.5128 17.3796 18.9274L16.0062 34.7232ZM27.4881 35.3866C27.4881 36.0816 27.9204 36.7034 28.548 36.9994C29.9189 37.6462 32.2542 38.9456 33.3075 40.7023C34.6651 42.9669 34.9212 47.058 34.9628 47.9949C34.9686 48.1263 34.9653 48.2576 34.9827 48.3873C35.208 50.0109 38.3414 48.1146 39.5427 46.1094C40.1953 45.022 40.2785 43.5929 40.2103 42.4764C40.1363 41.2825 39.7863 40.1295 39.4429 38.9838L38.7113 36.5422H47.7374C47.9943 36.5422 48.2477 36.4827 48.4777 36.3683C48.7077 36.2539 48.9081 36.0878 49.0632 35.883C49.2182 35.6782 49.3237 35.4402 49.3713 35.1878C49.419 34.9353 49.4075 34.6753 49.3377 34.428L44.8733 18.619C44.7748 18.2703 44.565 17.9634 44.276 17.7449C43.987 17.5264 43.6345 17.4083 43.2722 17.4085H29.1508C28.7098 17.4085 28.2869 17.5837 27.9751 17.8955C27.6632 18.2074 27.4881 18.6303 27.4881 19.0713V35.3866Z" fill="white" stroke="white" stroke-width="0.99115" stroke-linecap="round" stroke-linejoin="round"/>
</mask>
<g mask="url(#mask0_99_467)">
<path d="M12.5244 53.1558H52.4294V13.2508H12.5244V53.1558Z" fill="#F8CC48"/>
</g>
</svg>
