<svg width="96" height="96" viewBox="0 0 96 96" fill="none" xmlns="http://www.w3.org/2000/svg">
<path d="M36.125 69.375L69.375 48L36.125 26.625V69.375ZM48 95.5C41.4292 95.5 35.2542 94.2523 29.475 91.757C23.6958 89.2648 18.6688 85.8813 14.3938 81.6063C10.1188 77.3313 6.73517 72.3042 4.243 66.525C1.74767 60.7458 0.5 54.5708 0.5 48C0.5 41.4292 1.74767 35.2542 4.243 29.475C6.73517 23.6958 10.1188 18.6688 14.3938 14.3938C18.6688 10.1188 23.6958 6.73358 29.475 4.23825C35.2542 1.74608 41.4292 0.5 48 0.5C54.5708 0.5 60.7458 1.74608 66.525 4.23825C72.3042 6.73358 77.3313 10.1188 81.6063 14.3938C85.8813 18.6688 89.2648 23.6958 91.757 29.475C94.2523 35.2542 95.5 41.4292 95.5 48C95.5 54.5708 94.2523 60.7458 91.757 66.525C89.2648 72.3042 85.8813 77.3313 81.6063 81.6063C77.3313 85.8813 72.3042 89.2648 66.525 91.757C60.7458 94.2523 54.5708 95.5 48 95.5Z" fill="white"/>
</svg>
