<svg width="25" height="25" viewBox="0 0 25 25" fill="none" xmlns="http://www.w3.org/2000/svg">
<path fill-rule="evenodd" clip-rule="evenodd" d="M23.667 6.44531C23.8408 5.89453 23.667 5.49414 22.8979 5.49414H20.3408C19.6958 5.49414 19.3979 5.84473 19.2241 6.21973C19.2241 6.21973 17.9087 9.42285 16.0718 11.4995C15.4761 12.1001 15.2031 12.3003 14.8804 12.3003C14.7065 12.3003 14.4829 12.1001 14.4829 11.5498V6.41943C14.4829 5.76904 14.2847 5.46875 13.7383 5.46875H9.7168C9.31933 5.46875 9.07129 5.76904 9.07129 6.06934C9.07129 6.69482 9.98975 6.84521 10.0889 8.59668V12.4023C10.0889 13.228 9.94238 13.3789 9.61719 13.3789C8.74853 13.3789 6.63867 10.1509 5.37305 6.47266C5.12695 5.74414 4.87695 5.46875 4.23145 5.46875H1.6499C0.905273 5.46875 0.78125 5.81885 0.78125 6.19434C0.78125 6.87012 1.6499 10.2729 4.82715 14.7769C6.93701 17.853 9.94043 19.5063 12.646 19.5063C14.2847 19.5063 14.4829 19.1309 14.4829 18.5054V16.1782C14.4829 15.4277 14.6318 15.3027 15.1533 15.3027C15.5254 15.3027 16.1958 15.5024 17.71 16.979C19.4473 18.7305 19.7451 19.5312 20.7134 19.5312H23.27C24.0146 19.5312 24.3623 19.1558 24.1636 18.4302C23.9404 17.7046 23.0962 16.6538 22.0039 15.4028C21.4082 14.7026 20.5146 13.9268 20.2417 13.5513C19.8696 13.0508 19.9687 12.8506 20.2417 12.4004C20.2168 12.4004 23.3447 7.94629 23.667 6.44336" fill="url(#paint0_linear_89_771)"/>
<defs>
<linearGradient id="paint0_linear_89_771" x1="12.5" y1="5.46875" x2="12.5" y2="19.5312" gradientUnits="userSpaceOnUse">
<stop stop-color="#0077FF"/>
<stop offset="1" stop-color="#0077FF"/>
</linearGradient>
</defs>
</svg>
