<svg width="25" height="26" viewBox="0 0 25 26" fill="none" xmlns="http://www.w3.org/2000/svg">
<path d="M0.533203 12.4467C0.532617 14.5636 1.08574 16.6306 2.1375 18.4524L0.432617 24.6772L6.80293 23.0069C8.56487 23.9661 10.539 24.4687 12.5451 24.4688H12.5504C19.1729 24.4688 24.5639 19.0799 24.5667 12.4562C24.568 9.24648 23.3191 6.22832 21.0502 3.95762C18.7816 1.68711 15.7646 0.436035 12.5499 0.43457C5.92656 0.43457 0.535937 5.82324 0.533203 12.4467Z" fill="url(#paint0_linear_89_776)"/>
<path d="M9.44141 7.24093C9.2084 6.72306 8.96318 6.71261 8.7416 6.70353C8.56016 6.69571 8.35273 6.6963 8.14551 6.6963C7.93809 6.6963 7.60107 6.77433 7.31621 7.08536C7.03105 7.39669 6.22754 8.14903 6.22754 9.67921C6.22754 11.2095 7.34209 12.6883 7.49746 12.896C7.65303 13.1033 9.64912 16.344 12.8104 17.5906C15.4378 18.6267 15.9725 18.4206 16.5427 18.3687C17.113 18.3169 18.3829 17.6165 18.642 16.8902C18.9013 16.1641 18.9013 15.5416 18.8235 15.4115C18.7458 15.2819 18.5384 15.2041 18.2273 15.0486C17.9162 14.8931 16.3871 14.1406 16.102 14.0368C15.8169 13.9331 15.6096 13.8814 15.4021 14.1928C15.1947 14.5037 14.5991 15.2041 14.4176 15.4115C14.2362 15.6194 14.0547 15.6453 13.7437 15.4898C13.4325 15.3337 12.4309 15.0057 11.2425 13.9462C10.3179 13.1218 9.69365 12.1037 9.51221 11.7923C9.33076 11.4814 9.49277 11.3128 9.64873 11.1578C9.78848 11.0185 9.95986 10.7946 10.1155 10.6131C10.2706 10.4315 10.3224 10.3019 10.4261 10.0944C10.5299 9.88683 10.4779 9.70519 10.4003 9.54962C10.3224 9.39405 9.71797 7.85587 9.44141 7.24093Z" fill="white"/>
<defs>
<linearGradient id="paint0_linear_89_776" x1="12.4997" y1="0.43457" x2="12.4997" y2="24.6772" gradientUnits="userSpaceOnUse">
<stop stop-color="#57D163"/>
<stop offset="1" stop-color="#23B33A"/>
</linearGradient>
</defs>
</svg>
