<svg width="25" height="25" viewBox="0 0 25 25" fill="none" xmlns="http://www.w3.org/2000/svg">
<g clip-path="url(#clip0_89_779)">
<path d="M12.5 0C9.18555 0 6.00391 1.31777 3.66211 3.66113C1.3179 6.00542 0.000649355 9.18473 0 12.5C0 15.8139 1.31836 18.9955 3.66211 21.3389C6.00391 23.6822 9.18555 25 12.5 25C15.8145 25 18.9961 23.6822 21.3379 21.3389C23.6816 18.9955 25 15.8139 25 12.5C25 9.18613 23.6816 6.00449 21.3379 3.66113C18.9961 1.31777 15.8145 0 12.5 0Z" fill="url(#paint0_linear_89_779)"/>
<path d="M5.65862 12.3676C9.30315 10.7801 11.7328 9.73337 12.9477 9.22771C16.4203 7.78377 17.141 7.53298 17.6117 7.52449C17.7153 7.52283 17.9457 7.54841 18.0961 7.67C18.2211 7.77253 18.2563 7.91121 18.2739 8.00857C18.2895 8.10584 18.311 8.32752 18.2934 8.50056C18.1059 10.4771 17.2914 15.2736 16.8774 17.4875C16.7035 18.4242 16.3578 18.7383 16.0239 18.7689C15.2973 18.8357 14.7465 18.2892 14.0434 17.8285C12.9438 17.1072 12.3227 16.6584 11.2543 15.9547C10.0199 15.1414 10.8207 14.6943 11.5239 13.9638C11.7074 13.7726 14.9067 10.8635 14.9672 10.5996C14.975 10.5666 14.9828 10.4435 14.9086 10.3787C14.8364 10.3136 14.7289 10.3359 14.6508 10.3535C14.5395 10.3785 12.7836 11.5402 9.37737 13.8385C8.87932 14.181 8.42815 14.348 8.0219 14.3392C7.57659 14.3297 6.71721 14.0869 6.07854 13.8795C5.29729 13.625 4.67424 13.4904 4.72893 13.0582C4.75627 12.8332 5.06682 12.6029 5.65862 12.3676Z" fill="white"/>
</g>
<defs>
<linearGradient id="paint0_linear_89_779" x1="1250" y1="0" x2="1250" y2="2500" gradientUnits="userSpaceOnUse">
<stop stop-color="#2AABEE"/>
<stop offset="1" stop-color="#229ED9"/>
</linearGradient>
<clipPath id="clip0_89_779">
<rect width="25" height="25" fill="white"/>
</clipPath>
</defs>
</svg>
