<svg width="26" height="25" viewBox="0 0 26 25" fill="none" xmlns="http://www.w3.org/2000/svg">
<g clip-path="url(#clip0_89_744)">
<path d="M13 0C9.68555 0 6.50391 1.31777 4.16211 3.66113C1.8179 6.00542 0.500649 9.18473 0.5 12.5C0.5 15.8139 1.81836 18.9955 4.16211 21.3389C6.50391 23.6822 9.68555 25 13 25C16.3145 25 19.4961 23.6822 21.8379 21.3389C24.1816 18.9955 25.5 15.8139 25.5 12.5C25.5 9.18613 24.1816 6.00449 21.8379 3.66113C19.4961 1.31777 16.3145 0 13 0Z" fill="white"/>
<path d="M6.15862 12.3676C9.80315 10.7801 12.2328 9.73337 13.4477 9.22771C16.9203 7.78377 17.641 7.53298 18.1117 7.52449C18.2153 7.52283 18.4457 7.54841 18.5961 7.67C18.7211 7.77253 18.7563 7.91121 18.7739 8.00857C18.7895 8.10584 18.811 8.32752 18.7934 8.50056C18.6059 10.4771 17.7914 15.2736 17.3774 17.4875C17.2035 18.4242 16.8578 18.7383 16.5239 18.7689C15.7973 18.8357 15.2465 18.2892 14.5434 17.8285C13.4438 17.1072 12.8227 16.6584 11.7543 15.9547C10.5199 15.1414 11.3207 14.6943 12.0239 13.9638C12.2074 13.7726 15.4067 10.8635 15.4672 10.5996C15.475 10.5666 15.4828 10.4435 15.4086 10.3787C15.3364 10.3136 15.2289 10.3359 15.1508 10.3535C15.0395 10.3785 13.2836 11.5402 9.87737 13.8385C9.37932 14.181 8.92815 14.348 8.5219 14.3392C8.07659 14.3297 7.21721 14.0869 6.57854 13.8795C5.79729 13.625 5.17424 13.4904 5.22893 13.0582C5.25627 12.8332 5.56682 12.6029 6.15862 12.3676Z" fill="url(#paint0_linear_89_744)"/>
</g>
<defs>
<linearGradient id="paint0_linear_89_744" x1="683.945" y1="7.52441" x2="683.945" y2="1132.53" gradientUnits="userSpaceOnUse">
<stop stop-color="#2AABEE"/>
<stop offset="1" stop-color="#229ED9"/>
</linearGradient>
<clipPath id="clip0_89_744">
<rect width="25" height="25" fill="white" transform="translate(0.5)"/>
</clipPath>
</defs>
</svg>
