<svg width="26" height="26" viewBox="0 0 26 26" fill="none" xmlns="http://www.w3.org/2000/svg">
<g clip-path="url(#clip0_89_257)">
<path d="M13 0C9.55297 0 6.24406 1.37048 3.80859 3.80758C1.37061 6.24564 0.000675329 9.55212 0 13C0 16.4464 1.37109 19.7553 3.80859 22.1924C6.24406 24.6295 9.55297 26 13 26C16.447 26 19.7559 24.6295 22.1914 22.1924C24.6289 19.7553 26 16.4464 26 13C26 9.55358 24.6289 6.24467 22.1914 3.80758C19.7559 1.37048 16.447 0 13 0Z" fill="url(#paint0_linear_89_257)"/>
<path d="M5.88442 12.863C9.67473 11.212 12.2016 10.1235 13.465 9.5976C17.0766 8.0959 17.8261 7.83508 18.3157 7.82625C18.4233 7.82452 18.663 7.85113 18.8194 7.97758C18.9494 8.08422 18.986 8.22844 19.0043 8.32969C19.0205 8.43085 19.0429 8.6614 19.0246 8.84137C18.8296 10.897 17.9825 15.8853 17.5519 18.1878C17.3711 19.1619 17.0116 19.4886 16.6643 19.5205C15.9086 19.5899 15.3358 19.0216 14.6046 18.5424C13.461 17.7923 12.815 17.3255 11.7039 16.5936C10.4202 15.7478 11.253 15.2829 11.9843 14.5232C12.1752 14.3243 15.5024 11.2988 15.5654 11.0244C15.5735 10.99 15.5816 10.8621 15.5044 10.7946C15.4293 10.727 15.3175 10.7501 15.2363 10.7684C15.1205 10.7944 13.2944 12.0026 9.75192 14.3928C9.23395 14.7491 8.76473 14.9227 8.34223 14.9136C7.8791 14.9036 6.98535 14.6511 6.32113 14.4354C5.50863 14.1708 4.86067 14.0308 4.91754 13.5813C4.94598 13.3473 5.26895 13.1078 5.88442 12.863Z" fill="white"/>
</g>
<defs>
<linearGradient id="paint0_linear_89_257" x1="1300" y1="0" x2="1300" y2="2600" gradientUnits="userSpaceOnUse">
<stop stop-color="#2AABEE"/>
<stop offset="1" stop-color="#229ED9"/>
</linearGradient>
<clipPath id="clip0_89_257">
<rect width="26" height="26" fill="white"/>
</clipPath>
</defs>
</svg>
