<svg width="26" height="25" viewBox="0 0 26 25" fill="none" xmlns="http://www.w3.org/2000/svg">
<path fill-rule="evenodd" clip-rule="evenodd" d="M24.167 6.44531C24.3408 5.89453 24.167 5.49414 23.3979 5.49414H20.8408C20.1958 5.49414 19.8979 5.84473 19.7241 6.21973C19.7241 6.21973 18.4087 9.42285 16.5718 11.4995C15.9761 12.1001 15.7031 12.3003 15.3804 12.3003C15.2065 12.3003 14.9829 12.1001 14.9829 11.5498V6.41943C14.9829 5.76904 14.7847 5.46875 14.2383 5.46875H10.2168C9.81933 5.46875 9.57129 5.76904 9.57129 6.06934C9.57129 6.69482 10.4897 6.84521 10.5889 8.59668V12.4023C10.5889 13.228 10.4424 13.3789 10.1172 13.3789C9.24853 13.3789 7.13867 10.1509 5.87305 6.47266C5.62695 5.74414 5.37695 5.46875 4.73145 5.46875H2.1499C1.40527 5.46875 1.28125 5.81885 1.28125 6.19434C1.28125 6.87012 2.1499 10.2729 5.32715 14.7769C7.43701 17.853 10.4404 19.5063 13.146 19.5063C14.7847 19.5063 14.9829 19.1309 14.9829 18.5054V16.1782C14.9829 15.4277 15.1318 15.3027 15.6533 15.3027C16.0254 15.3027 16.6958 15.5024 18.21 16.979C19.9473 18.7305 20.2451 19.5312 21.2134 19.5312H23.77C24.5146 19.5312 24.8623 19.1558 24.6636 18.4302C24.4404 17.7046 23.5962 16.6538 22.5039 15.4028C21.9082 14.7026 21.0146 13.9268 20.7417 13.5513C20.3696 13.0508 20.4687 12.8506 20.7417 12.4004C20.7168 12.4004 23.8447 7.94629 24.167 6.44336" fill="white"/>
</svg>
