<svg width="26" height="27" viewBox="0 0 26 27" fill="none" xmlns="http://www.w3.org/2000/svg">
<path d="M0.554805 12.9447C0.554195 15.1463 1.12945 17.296 2.22327 19.1907L0.450195 25.6645L7.07532 23.9274C8.90774 24.925 10.9608 25.4477 13.0472 25.4478H13.0527C19.9401 25.4478 25.5467 19.8433 25.5496 12.9546C25.551 9.61654 24.2522 6.47765 21.8925 4.11612C19.5332 1.75479 16.3954 0.453672 13.0522 0.452148C6.1639 0.452148 0.55775 6.05637 0.554906 12.9447" fill="url(#paint0_linear_89_254)"/>
<path d="M9.81898 7.53029C9.57666 6.99171 9.32163 6.98084 9.09119 6.97139C8.90248 6.96327 8.68676 6.96388 8.47125 6.96388C8.25553 6.96388 7.90504 7.04503 7.60878 7.3685C7.31222 7.69228 6.47656 8.47472 6.47656 10.0661C6.47656 11.6576 7.6357 13.1955 7.79728 13.4116C7.95907 13.6272 10.035 16.9974 13.3228 18.294C16.0552 19.3715 16.6113 19.1572 17.2043 19.1031C17.7974 19.0493 19.1181 18.3209 19.3876 17.5656C19.6572 16.8104 19.6572 16.163 19.5764 16.0277C19.4956 15.8929 19.2798 15.812 18.9564 15.6503C18.6328 15.4885 17.0425 14.706 16.7461 14.598C16.4495 14.4902 16.2339 14.4363 16.0182 14.7602C15.8024 15.0836 15.183 15.812 14.9942 16.0277C14.8056 16.2439 14.6168 16.2709 14.2934 16.1091C13.9697 15.9468 12.928 15.6056 11.6921 14.5038C10.7305 13.6464 10.0813 12.5876 9.89262 12.2637C9.70391 11.9403 9.87241 11.765 10.0346 11.6039C10.1799 11.4589 10.3582 11.2262 10.5201 11.0373C10.6814 10.8484 10.7352 10.7137 10.843 10.4979C10.951 10.282 10.897 10.0931 10.8162 9.93133C10.7352 9.76954 10.1066 8.16983 9.81898 7.53029Z" fill="white"/>
<defs>
<linearGradient id="paint0_linear_89_254" x1="12.9999" y1="0.452148" x2="12.9999" y2="25.6645" gradientUnits="userSpaceOnUse">
<stop stop-color="#57D163"/>
<stop offset="1" stop-color="#23B33A"/>
</linearGradient>
</defs>
</svg>
