<svg width="26" height="27" viewBox="0 0 26 27" fill="none" xmlns="http://www.w3.org/2000/svg">
<g clip-path="url(#clip0_89_739)">
<path d="M1.0332 13.349C1.03262 15.4659 1.58574 17.5329 2.6375 19.3548L0.932617 25.5796L7.30293 23.9093C9.06487 24.8685 11.039 25.3711 13.0451 25.3712H13.0504C19.6729 25.3712 25.0639 19.9822 25.0667 13.3585C25.068 10.1488 23.8191 7.13066 21.5502 4.85996C19.2816 2.58945 16.2646 1.33838 13.0499 1.33691C6.42656 1.33691 1.03604 6.72559 1.0333 13.349" fill="white"/>
<path d="M9.94141 8.14327C9.7084 7.6254 9.46318 7.61495 9.2416 7.60587C9.06016 7.59806 8.85273 7.59864 8.64551 7.59864C8.43809 7.59864 8.10107 7.67667 7.81621 7.98771C7.53105 8.29903 6.72754 9.05138 6.72754 10.5816C6.72754 12.1118 7.84209 13.5906 7.99746 13.7983C8.15303 14.0057 10.1491 17.2463 13.3104 18.493C15.9378 19.529 16.4725 19.323 17.0427 19.271C17.613 19.2192 18.8829 18.5189 19.142 17.7926C19.4013 17.0664 19.4013 16.444 19.3235 16.3139C19.2458 16.1843 19.0384 16.1065 18.7273 15.951C18.4162 15.7954 16.8871 15.043 16.602 14.9392C16.3169 14.8355 16.1096 14.7837 15.9021 15.0951C15.6947 15.4061 15.0991 16.1065 14.9176 16.3139C14.7362 16.5218 14.5547 16.5477 14.2437 16.3921C13.9325 16.236 12.9309 15.908 11.7425 14.8485C10.8179 14.0241 10.1937 13.0061 10.0122 12.6946C9.83076 12.3837 9.99277 12.2151 10.1487 12.0602C10.2885 11.9208 10.4599 11.697 10.6155 11.5154C10.7706 11.3338 10.8224 11.2042 10.9261 10.9968C11.0299 10.7892 10.9779 10.6075 10.9003 10.452C10.8224 10.2964 10.218 8.75821 9.94141 8.14327Z" fill="url(#paint0_linear_89_739)"/>
</g>
<defs>
<linearGradient id="paint0_linear_89_739" x1="13.0482" y1="7.59863" x2="13.0482" y2="19.3226" gradientUnits="userSpaceOnUse">
<stop stop-color="#57D163"/>
<stop offset="1" stop-color="#23B33A"/>
</linearGradient>
<clipPath id="clip0_89_739">
<rect width="25" height="25.1953" fill="white" transform="translate(0.5 0.902344)"/>
</clipPath>
</defs>
</svg>
