<svg width="62" height="62" viewBox="0 0 62 62" fill="none" xmlns="http://www.w3.org/2000/svg">
<path d="M24.542 42.6248L42.6253 30.9998L24.542 19.3748V42.6248ZM31.0003 56.8332C27.4267 56.8332 24.0684 56.1546 20.9253 54.7975C17.7823 53.4421 15.0482 51.6019 12.7232 49.2769C10.3982 46.9519 8.55805 44.2179 7.20266 41.0748C5.84555 37.9318 5.16699 34.5735 5.16699 30.9998C5.16699 27.4262 5.84555 24.0679 7.20266 20.9248C8.55805 17.7818 10.3982 15.0478 12.7232 12.7228C15.0482 10.3978 17.7823 8.5567 20.9253 7.19959C24.0684 5.8442 27.4267 5.1665 31.0003 5.1665C34.5739 5.1665 37.9323 5.8442 41.0753 7.19959C44.2184 8.5567 46.9524 10.3978 49.2774 12.7228C51.6024 15.0478 53.4426 17.7818 54.798 20.9248C56.1551 24.0679 56.8337 27.4262 56.8337 30.9998C56.8337 34.5735 56.1551 37.9318 54.798 41.0748C53.4426 44.2179 51.6024 46.9519 49.2774 49.2769C46.9524 51.6019 44.2184 53.4421 41.0753 54.7975C37.9323 56.1546 34.5739 56.8332 31.0003 56.8332Z" fill="#F8CC48"/>
</svg>
